<svg xmlns="http://www.w3.org/2000/svg" xml:space="preserve" width="35.8986mm" height="6.2652mm" version="1.1" style="shape-rendering:geometricPrecision; text-rendering:geometricPrecision; image-rendering:optimizeQuality; fill-rule:evenodd; clip-rule:evenodd"
viewBox="0 0 3589.86 626.52"
 xmlns:xlink="http://www.w3.org/1999/xlink">
 <g id="Capa_x0020_1">
  <metadata id="CorelCorpID_0Corel-Layer"/>
  <path class="fil0" d="M486.56 463.34l0 -446.2 167.43 0c34.06,0 61.38,4.47 82.05,13.5 20.56,9.04 36.66,22.96 48.29,41.76 11.74,18.69 17.56,38.32 17.56,58.88 0,19.01 -5.19,36.98 -15.48,53.8 -10.28,16.83 -25.86,30.44 -46.73,40.82 27,7.9 47.77,21.4 62.21,40.51 14.54,19.01 21.81,41.55 21.81,67.51 0,20.98 -4.47,40.4 -13.3,58.37 -8.82,17.97 -19.73,31.79 -32.71,41.55 -12.98,9.66 -29.29,17.03 -48.82,22.02 -19.63,4.98 -43.62,7.48 -72.08,7.48l-170.23 0zm59.21 -258.62l96.48 0c26.17,0 44.97,-1.77 56.3,-5.2 15.06,-4.46 26.38,-11.94 33.96,-22.33 7.58,-10.38 11.42,-23.37 11.42,-39.05 0,-14.85 -3.53,-27.94 -10.69,-39.16 -7.07,-11.32 -17.25,-19.11 -30.44,-23.26 -13.18,-4.15 -35.83,-6.23 -67.82,-6.23l-89.21 0 0 135.23zm0 206.27l111.13 0c19.11,0 32.51,-0.73 40.29,-2.18 13.51,-2.39 24.93,-6.44 34.07,-12.16 9.14,-5.71 16.62,-14.02 22.54,-24.92 5.92,-10.91 8.83,-23.47 8.83,-37.7 0,-16.73 -4.26,-31.16 -12.88,-43.52 -8.52,-12.36 -20.36,-20.98 -35.52,-25.97 -15.06,-4.98 -36.87,-7.48 -65.23,-7.48l-103.23 0 0 153.93zm331.52 -109.37c0,-59.72 16.62,-103.97 49.96,-132.74 27.73,-23.88 61.7,-35.83 101.69,-35.83 44.34,0 80.7,14.54 108.94,43.62 28.15,28.98 42.28,69.18 42.28,120.38 0,41.55 -6.23,74.16 -18.7,97.94 -12.46,23.79 -30.64,42.28 -54.52,55.46 -23.79,13.2 -49.86,19.74 -78,19.74 -45.29,0 -81.85,-14.44 -109.79,-43.41 -27.94,-28.98 -41.86,-70.74 -41.86,-125.16zm56.09 0.11c0,41.33 9.04,72.28 27.11,92.75 18.17,20.56 40.92,30.84 68.45,30.84 27.2,0 49.85,-10.28 68.02,-30.95 18.08,-20.67 27.11,-52.14 27.11,-94.41 0,-39.88 -9.14,-70.11 -27.31,-90.57 -18.18,-20.57 -40.82,-30.85 -67.82,-30.85 -27.53,0 -50.28,10.18 -68.45,30.64 -18.07,20.46 -27.11,51.31 -27.11,92.55zm519.83 161.61l0 -41.03c-20.46,31.88 -50.58,47.88 -90.35,47.88 -25.76,0 -49.44,-7.06 -70.95,-21.29 -21.6,-14.13 -38.32,-33.96 -50.27,-59.31 -11.83,-25.45 -17.75,-54.63 -17.75,-87.66 0,-32.2 5.4,-61.38 16.09,-87.66 10.81,-26.17 26.9,-46.32 48.4,-60.24 21.4,-14.02 45.5,-20.98 71.98,-20.98 19.53,0 36.87,4.16 52.03,12.36 15.17,8.2 27.53,19.01 37.08,32.2l0 -160.47 54.84 0 0 446.2 -51.1 0zm-173.24 -161.31c0,41.34 8.73,72.19 26.28,92.65 17.45,20.46 38.12,30.64 61.9,30.64 23.99,0 44.35,-9.76 61.18,-29.29 16.72,-19.52 25.13,-49.33 25.13,-89.43 0,-44.03 -8.52,-76.44 -25.65,-97.11 -17.04,-20.67 -38.12,-30.95 -63.15,-30.95 -24.41,0 -44.77,9.87 -61.17,29.71 -16.31,19.84 -24.52,51.1 -24.52,93.78zm531.68 56.61l56.71 7.48c-8.83,32.92 -25.35,58.58 -49.44,76.76 -24.1,18.17 -54.84,27.31 -92.33,27.31 -47.16,0 -84.55,-14.54 -112.18,-43.62 -27.63,-28.98 -41.44,-69.8 -41.44,-122.25 0,-54.22 13.92,-96.38 41.86,-126.3 27.94,-30.01 64.18,-44.97 108.74,-44.97 43.1,0 78.31,14.65 105.63,44.04 27.32,29.39 41.03,70.73 41.03,124.01 0,3.22 -0.11,8.1 -0.32,14.54l-240.85 0c2.07,35.42 12.05,62.63 30.11,81.43 17.98,18.8 40.51,28.25 67.42,28.25 20.04,0 37.18,-5.3 51.3,-15.89 14.23,-10.59 25.45,-27.52 33.76,-50.79zm-179.48 -87.87l180.1 0c-2.39,-27.21 -9.35,-47.57 -20.67,-61.17 -17.34,-21.08 -39.98,-31.68 -67.72,-31.68 -25.13,0 -46.22,8.41 -63.35,25.24 -17.04,16.83 -26.49,39.36 -28.36,67.61zm295.39 219.36l52.97 7.48c2.18,16.41 8.41,28.35 18.59,35.94 13.61,10.07 32.2,15.16 55.78,15.16 25.34,0 44.97,-5.09 58.78,-15.16 13.81,-10.08 23.16,-24.31 28.04,-42.48 2.81,-11.11 4.16,-34.48 3.95,-70.11 -23.99,28.25 -53.8,42.38 -89.53,42.38 -44.45,0 -78.94,-16 -103.24,-48.1 -24.41,-31.98 -36.56,-70.41 -36.56,-115.18 0,-30.84 5.61,-59.3 16.72,-85.37 11.12,-26.07 27.32,-46.12 48.51,-60.34 21.19,-14.24 46.11,-21.3 74.78,-21.3 38.12,0 69.59,15.58 94.31,46.74l0 -39.88 50.47 0 0 279.28c0,50.38 -5.08,86 -15.37,106.98 -10.17,20.98 -26.48,37.6 -48.61,49.75 -22.22,12.15 -49.54,18.28 -81.94,18.28 -38.54,0 -69.59,-8.62 -93.27,-25.97 -23.79,-17.23 -35.21,-43.3 -34.38,-78.1zm44.87 -194.01c0,42.27 8.41,73.12 25.24,92.54 16.93,19.42 38.01,29.18 63.35,29.18 25.24,0 46.33,-9.66 63.46,-28.97 17.04,-19.32 25.55,-49.65 25.55,-90.99 0,-39.47 -8.82,-69.27 -26.38,-89.32 -17.55,-20.04 -38.74,-30.02 -63.46,-30.02 -24.41,0 -45.07,9.87 -62.21,29.61 -17.04,19.73 -25.55,49.02 -25.55,87.97zm523.05 126.71c-20.35,17.34 -39.98,29.49 -58.78,36.66 -18.8,7.17 -38.95,10.7 -60.56,10.7 -35.51,0 -62.83,-8.62 -81.94,-25.97 -19.12,-17.24 -28.67,-39.36 -28.67,-66.26 0,-15.79 3.64,-30.22 10.8,-43.31 7.27,-13.09 16.72,-23.47 28.36,-31.37 11.73,-7.89 24.82,-13.92 39.47,-17.97 10.8,-2.8 27.1,-5.5 48.81,-8.2 44.25,-5.19 76.96,-11.53 97.84,-18.8 0.21,-7.48 0.31,-12.25 0.31,-14.23 0,-22.22 -5.19,-37.91 -15.58,-47.05 -14.02,-12.36 -34.9,-18.49 -62.52,-18.49 -25.87,0 -44.98,4.58 -57.23,13.61 -12.36,9.04 -21.4,25.03 -27.32,48.09l-53.59 -7.48c4.88,-22.95 12.88,-41.54 24.1,-55.67 11.21,-14.13 27.41,-24.93 48.6,-32.61 21.08,-7.59 45.7,-11.43 73.54,-11.43 27.62,0 50.16,3.22 67.51,9.76 17.24,6.55 30.02,14.65 38.12,24.52 8.1,9.86 13.81,22.33 17.13,37.39 1.77,9.34 2.71,26.17 2.71,50.37l0 72.71c0,50.78 1.13,82.88 3.42,96.48 2.18,13.61 6.75,26.59 13.4,39.06l-57.33 0c-5.51,-11.53 -9.04,-25.04 -10.6,-40.51zm-4.36 -121.52c-19.94,8.1 -49.85,14.96 -89.74,20.56 -22.64,3.22 -38.63,6.86 -47.98,10.91 -9.35,4.05 -16.51,9.97 -21.61,17.66 -5.08,7.79 -7.68,16.41 -7.68,25.96 0,14.44 5.5,26.59 16.62,36.25 11.11,9.66 27.31,14.54 48.6,14.54 21.09,0 39.89,-4.57 56.4,-13.81 16.41,-9.14 28.57,-21.71 36.25,-37.6 5.92,-12.36 8.83,-30.54 8.83,-54.53l0.31 -19.94zm117.89 65.43l54.21 -8.72c3.02,21.71 11.53,38.32 25.45,49.96 13.91,11.53 33.44,17.34 58.37,17.34 25.24,0 43.93,-5.09 56.19,-15.37 12.15,-10.18 18.28,-22.23 18.28,-36.04 0,-12.36 -5.51,-22.12 -16.41,-29.19 -7.69,-4.88 -26.38,-11.01 -56.09,-18.59 -40.09,-10.07 -67.82,-18.8 -83.4,-26.17 -15.47,-7.48 -27.21,-17.66 -35.21,-30.74 -7.99,-12.99 -12.05,-27.43 -12.05,-43.21 0,-14.44 3.33,-27.73 9.87,-39.99 6.65,-12.25 15.58,-22.43 26.9,-30.54 8.52,-6.23 20.15,-11.52 34.8,-15.89 14.74,-4.36 30.43,-6.54 47.25,-6.54 25.35,0 47.57,3.64 66.68,11.01 19.22,7.27 33.34,17.24 42.48,29.71 9.04,12.56 15.38,29.28 18.8,50.26l-53.59 7.48c-2.39,-16.82 -9.45,-30.01 -21.08,-39.46 -11.64,-9.46 -28.05,-14.13 -49.34,-14.13 -25.03,0 -43,4.16 -53.7,12.47 -10.7,8.3 -16.1,18.06 -16.1,29.18 0,7.06 2.19,13.5 6.65,19.22 4.47,5.81 11.43,10.69 20.98,14.54 5.5,2.07 21.5,6.75 48.3,14.02 38.64,10.28 65.64,18.8 81.01,25.34 15.37,6.54 27.42,16.2 36.15,28.67 8.82,12.56 13.19,28.14 13.19,46.84 0,18.17 -5.3,35.31 -16,51.41 -10.7,16.1 -26.07,28.56 -46.11,37.39 -20.16,8.83 -42.9,13.19 -68.24,13.19 -41.96,0 -74.06,-8.72 -96.07,-26.07 -22.02,-17.45 -36.04,-43.21 -42.17,-77.38z"/>
 </g>
</svg>
